<?xml version="1.0" encoding="UTF-8"?><svg xmlns="http://www.w3.org/2000/svg" xmlns:xlink="http://www.w3.org/1999/xlink" fill-opacity="1" color-rendering="auto" color-interpolation="auto" text-rendering="auto" stroke="black" stroke-linecap="square" width="670" stroke-miterlimit="10" shape-rendering="auto" stroke-opacity="1" fill="black" stroke-dasharray="none" font-weight="normal" stroke-width="1" height="272" font-family="'Dialog'" font-style="normal" stroke-linejoin="miter" font-size="12px" stroke-dashoffset="0" image-rendering="auto">
  <!--Generated by ySVG 2.6-->
  <defs id="genericDefs"/>
  <g>
    <defs id="defs1">
      <clipPath clipPathUnits="userSpaceOnUse" id="clipPath1">
        <path d="M0 0 L670 0 L670 272 L0 272 L0 0 Z"/>
      </clipPath>
      <clipPath clipPathUnits="userSpaceOnUse" id="clipPath2">
        <path d="M-15 -15 L655 -15 L655 257 L-15 257 L-15 -15 Z"/>
      </clipPath>
    </defs>
    <g fill="white" text-rendering="geometricPrecision" shape-rendering="geometricPrecision" transform="translate(15,15)" stroke="white">
      <rect x="-15" width="670" height="272" y="-15" clip-path="url(#clipPath2)" stroke="none"/>
    </g>
    <g stroke-linecap="butt" transform="matrix(1,0,0,1,15,15)" fill="white" text-rendering="geometricPrecision" shape-rendering="geometricPrecision" stroke="white" stroke-width="2" stroke-miterlimit="1.45">
      <rect fill="none" x="120" width="100" height="30" y="0" clip-path="url(#clipPath2)"/>
      <text x="140.6523" font-size="16px" y="21.0469" clip-path="url(#clipPath2)" font-family="sans-serif" stroke="none" stroke-width="1" xml:space="preserve">Dataset</text>
      <rect fill="none" x="0" width="100" height="30" y="70.5" clip-path="url(#clipPath2)"/>
      <text x="21.5547" font-size="16px" y="91.5469" clip-path="url(#clipPath2)" font-family="sans-serif" stroke="none" stroke-width="1" xml:space="preserve">Entities</text>
      <rect fill="none" x="120" width="100" height="30" y="70.5" clip-path="url(#clipPath2)"/>
      <text x="131.3828" font-size="16px" y="91.5469" clip-path="url(#clipPath2)" font-family="sans-serif" stroke="none" stroke-width="1" xml:space="preserve">Attributes</text>
      <rect fill="none" x="420" width="100" height="30" y="70.5" clip-path="url(#clipPath2)"/>
      <text x="434.6758" font-size="16px" y="91.5469" clip-path="url(#clipPath2)" font-family="sans-serif" stroke="none" stroke-width="1" xml:space="preserve">Structure</text>
      <rect fill="none" x="180" width="100" height="30" y="141" clip-path="url(#clipPath2)"/>
      <text x="186.2812" font-size="16px" y="162.0469" clip-path="url(#clipPath2)" font-family="sans-serif" stroke="none" stroke-width="1" xml:space="preserve">Categorical</text>
      <rect fill="none" x="60" width="100" height="30" y="141" clip-path="url(#clipPath2)"/>
      <text x="62.8203" font-size="16px" y="162.0469" clip-path="url(#clipPath2)" font-family="sans-serif" stroke="none" stroke-width="1" xml:space="preserve">Quantitative</text>
      <rect fill="none" x="540" width="100" height="30" y="141" clip-path="url(#clipPath2)"/>
      <text x="568.7188" font-size="16px" y="162.0469" clip-path="url(#clipPath2)" font-family="sans-serif" stroke="none" stroke-width="1" xml:space="preserve">Table</text>
      <rect fill="none" x="300" width="100" height="30" y="141" clip-path="url(#clipPath2)"/>
      <text x="317.6133" font-size="16px" y="162.0469" clip-path="url(#clipPath2)" font-family="sans-serif" stroke="none" stroke-width="1" xml:space="preserve">Network</text>
      <rect fill="none" x="420" width="100" height="30" y="141" clip-path="url(#clipPath2)"/>
      <text x="433.1445" font-size="16px" y="162.0469" clip-path="url(#clipPath2)" font-family="sans-serif" stroke="none" stroke-width="1" xml:space="preserve">Hierarchy</text>
      <rect fill="none" x="240" width="100" height="30" y="211.5" clip-path="url(#clipPath2)"/>
      <text x="257.6992" font-size="16px" y="232.5469" clip-path="url(#clipPath2)" font-family="sans-serif" stroke="none" stroke-width="1" xml:space="preserve">Nominal</text>
      <rect fill="none" x="120" width="100" height="30" y="211.5" clip-path="url(#clipPath2)"/>
      <text x="141.4688" font-size="16px" y="232.5469" clip-path="url(#clipPath2)" font-family="sans-serif" stroke="none" stroke-width="1" xml:space="preserve">Ordinal</text>
      <path fill="none" d="M170 30 L170 50.5 L50 50.5 L50 60.5" stroke-width="3" clip-path="url(#clipPath2)"/>
      <path d="M50 70.5 L56.25 55.5 L50 59.25 L43.75 55.5 Z" stroke-width="3" clip-path="url(#clipPath2)" stroke="none"/>
      <path fill="none" d="M170 30 L170 60.5" stroke-width="3" clip-path="url(#clipPath2)"/>
      <path d="M170 70.5 L176.25 55.5 L170 59.25 L163.75 55.5 Z" stroke-width="3" clip-path="url(#clipPath2)" stroke="none"/>
      <path fill="none" d="M170 30 L170 50.5 L470 50.5 L470 60.5" stroke-width="3" clip-path="url(#clipPath2)"/>
      <path d="M470 70.5 L476.25 55.5 L470 59.25 L463.75 55.5 Z" stroke-width="3" clip-path="url(#clipPath2)" stroke="none"/>
      <path fill="none" d="M170 100.5 L170 121 L230 121 L230 131" stroke-width="3" clip-path="url(#clipPath2)"/>
      <path d="M230 141 L236.25 126 L230 129.75 L223.75 126 Z" stroke-width="3" clip-path="url(#clipPath2)" stroke="none"/>
      <path fill="none" d="M170 100.5 L170 121 L110 121 L110 131" stroke-width="3" clip-path="url(#clipPath2)"/>
      <path d="M110 141 L116.25 126 L110 129.75 L103.75 126 Z" stroke-width="3" clip-path="url(#clipPath2)" stroke="none"/>
      <path fill="none" d="M470 100.5 L470 121 L590 121 L590 131" stroke-width="3" clip-path="url(#clipPath2)"/>
      <path d="M590 141 L596.25 126 L590 129.75 L583.75 126 Z" stroke-width="3" clip-path="url(#clipPath2)" stroke="none"/>
      <path fill="none" d="M470 100.5 L470 121 L350 121 L350 131" stroke-width="3" clip-path="url(#clipPath2)"/>
      <path d="M350 141 L356.25 126 L350 129.75 L343.75 126 Z" stroke-width="3" clip-path="url(#clipPath2)" stroke="none"/>
      <path fill="none" d="M470 100.5 L470 131" stroke-width="3" clip-path="url(#clipPath2)"/>
      <path d="M470 141 L476.25 126 L470 129.75 L463.75 126 Z" stroke-width="3" clip-path="url(#clipPath2)" stroke="none"/>
      <path fill="none" d="M230 171 L230 191.5 L290 191.5 L290 201.5" stroke-width="3" clip-path="url(#clipPath2)"/>
      <path d="M290 211.5 L296.25 196.5 L290 200.25 L283.75 196.5 Z" stroke-width="3" clip-path="url(#clipPath2)" stroke="none"/>
      <path fill="none" d="M230 171 L230 191.5 L170 191.5 L170 201.5" stroke-width="3" clip-path="url(#clipPath2)"/>
      <path d="M170 211.5 L176.25 196.5 L170 200.25 L163.75 196.5 Z" stroke-width="3" clip-path="url(#clipPath2)" stroke="none"/>
    </g>
  </g>
</svg>
