<?xml version="1.0" encoding="UTF-8"?><svg xmlns="http://www.w3.org/2000/svg" xmlns:xlink="http://www.w3.org/1999/xlink" fill-opacity="1" color-rendering="auto" color-interpolation="auto" text-rendering="auto" stroke="black" stroke-linecap="square" width="670" stroke-miterlimit="10" shape-rendering="auto" stroke-opacity="1" fill="black" stroke-dasharray="none" font-weight="normal" stroke-width="1" height="272" font-family="'Dialog'" font-style="normal" stroke-linejoin="miter" font-size="12px" stroke-dashoffset="0" image-rendering="auto">
  <!--Generated by ySVG 2.6-->
  <defs id="genericDefs"/>
  <g>
    <defs id="defs1">
      <clipPath clipPathUnits="userSpaceOnUse" id="clipPath1">
        <path d="M0 0 L670 0 L670 272 L0 272 L0 0 Z"/>
      </clipPath>
      <clipPath clipPathUnits="userSpaceOnUse" id="clipPath2">
        <path d="M-15 -15 L655 -15 L655 257 L-15 257 L-15 -15 Z"/>
      </clipPath>
    </defs>
    <g text-rendering="geometricPrecision" stroke-miterlimit="1.45" stroke-width="2" shape-rendering="geometricPrecision" transform="matrix(1,0,0,1,15,15)" stroke-linecap="butt">
      <rect fill="none" x="120" width="100" height="30" y="0" clip-path="url(#clipPath2)"/>
    </g>
    <g font-size="16px" stroke-linecap="butt" transform="matrix(1,0,0,1,15,15)" text-rendering="geometricPrecision" font-family="sans-serif" shape-rendering="geometricPrecision" stroke-miterlimit="1.45">
      <text x="140.6523" xml:space="preserve" y="21.0469" clip-path="url(#clipPath2)" stroke="none">Dataset</text>
      <rect x="0" y="70.5" clip-path="url(#clipPath2)" fill="none" width="100" height="30" stroke-width="2"/>
      <text x="21.5547" xml:space="preserve" y="91.5469" clip-path="url(#clipPath2)" stroke="none">Entities</text>
      <rect x="120" y="70.5" clip-path="url(#clipPath2)" fill="none" width="100" height="30" stroke-width="2"/>
      <text x="131.3828" xml:space="preserve" y="91.5469" clip-path="url(#clipPath2)" stroke="none">Attributes</text>
      <rect x="420" y="70.5" clip-path="url(#clipPath2)" fill="none" width="100" height="30" stroke-width="2"/>
      <text x="434.6758" xml:space="preserve" y="91.5469" clip-path="url(#clipPath2)" stroke="none">Structure</text>
      <rect x="180" y="141" clip-path="url(#clipPath2)" fill="none" width="100" height="30" stroke-width="2"/>
      <text x="186.2812" xml:space="preserve" y="162.0469" clip-path="url(#clipPath2)" stroke="none">Categorical</text>
      <rect x="60" y="141" clip-path="url(#clipPath2)" fill="none" width="100" height="30" stroke-width="2"/>
      <text x="62.8203" xml:space="preserve" y="162.0469" clip-path="url(#clipPath2)" stroke="none">Quantitative</text>
      <rect x="540" y="141" clip-path="url(#clipPath2)" fill="none" width="100" height="30" stroke-width="2"/>
      <text x="568.7188" xml:space="preserve" y="162.0469" clip-path="url(#clipPath2)" stroke="none">Table</text>
      <rect x="300" y="141" clip-path="url(#clipPath2)" fill="none" width="100" height="30" stroke-width="2"/>
      <text x="317.6133" xml:space="preserve" y="162.0469" clip-path="url(#clipPath2)" stroke="none">Network</text>
      <rect x="420" y="141" clip-path="url(#clipPath2)" fill="none" width="100" height="30" stroke-width="2"/>
      <text x="433.1445" xml:space="preserve" y="162.0469" clip-path="url(#clipPath2)" stroke="none">Hierarchy</text>
      <rect x="240" y="211.5" clip-path="url(#clipPath2)" fill="none" width="100" height="30" stroke-width="2"/>
      <text x="257.6992" xml:space="preserve" y="232.5469" clip-path="url(#clipPath2)" stroke="none">Nominal</text>
      <rect x="120" y="211.5" clip-path="url(#clipPath2)" fill="none" width="100" height="30" stroke-width="2"/>
      <text x="141.4688" xml:space="preserve" y="232.5469" clip-path="url(#clipPath2)" stroke="none">Ordinal</text>
      <path fill="none" d="M170 30 L170 50.5 L50 50.5 L50 60.5" stroke-width="3" clip-path="url(#clipPath2)"/>
      <path d="M50 70.5 L56.25 55.5 L50 59.25 L43.75 55.5 Z" stroke-width="3" clip-path="url(#clipPath2)" stroke="none"/>
      <path fill="none" d="M170 30 L170 60.5" stroke-width="3" clip-path="url(#clipPath2)"/>
      <path d="M170 70.5 L176.25 55.5 L170 59.25 L163.75 55.5 Z" stroke-width="3" clip-path="url(#clipPath2)" stroke="none"/>
      <path fill="none" d="M170 30 L170 50.5 L470 50.5 L470 60.5" stroke-width="3" clip-path="url(#clipPath2)"/>
      <path d="M470 70.5 L476.25 55.5 L470 59.25 L463.75 55.5 Z" stroke-width="3" clip-path="url(#clipPath2)" stroke="none"/>
      <path fill="none" d="M170 100.5 L170 121 L230 121 L230 131" stroke-width="3" clip-path="url(#clipPath2)"/>
      <path d="M230 141 L236.25 126 L230 129.75 L223.75 126 Z" stroke-width="3" clip-path="url(#clipPath2)" stroke="none"/>
      <path fill="none" d="M170 100.5 L170 121 L110 121 L110 131" stroke-width="3" clip-path="url(#clipPath2)"/>
      <path d="M110 141 L116.25 126 L110 129.75 L103.75 126 Z" stroke-width="3" clip-path="url(#clipPath2)" stroke="none"/>
      <path fill="none" d="M470 100.5 L470 121 L590 121 L590 131" stroke-width="3" clip-path="url(#clipPath2)"/>
      <path d="M590 141 L596.25 126 L590 129.75 L583.75 126 Z" stroke-width="3" clip-path="url(#clipPath2)" stroke="none"/>
      <path fill="none" d="M470 100.5 L470 121 L350 121 L350 131" stroke-width="3" clip-path="url(#clipPath2)"/>
      <path d="M350 141 L356.25 126 L350 129.75 L343.75 126 Z" stroke-width="3" clip-path="url(#clipPath2)" stroke="none"/>
      <path fill="none" d="M470 100.5 L470 131" stroke-width="3" clip-path="url(#clipPath2)"/>
      <path d="M470 141 L476.25 126 L470 129.75 L463.75 126 Z" stroke-width="3" clip-path="url(#clipPath2)" stroke="none"/>
      <path fill="none" d="M230 171 L230 191.5 L290 191.5 L290 201.5" stroke-width="3" clip-path="url(#clipPath2)"/>
      <path d="M290 211.5 L296.25 196.5 L290 200.25 L283.75 196.5 Z" stroke-width="3" clip-path="url(#clipPath2)" stroke="none"/>
      <path fill="none" d="M230 171 L230 191.5 L170 191.5 L170 201.5" stroke-width="3" clip-path="url(#clipPath2)"/>
      <path d="M170 211.5 L176.25 196.5 L170 200.25 L163.75 196.5 Z" stroke-width="3" clip-path="url(#clipPath2)" stroke="none"/>
    </g>
  </g>
</svg>
